<svg id="Слой_1" data-name="Слой 1" xmlns="http://www.w3.org/2000/svg" viewBox="0 0 898 305.15"><defs><style>.cls-1{fill:#fff;}</style></defs><path class="cls-1" d="M36,363.07a39.08,39.08,0,0,0,3.46-3.34q47.22-58.65,94.32-117.38a9.41,9.41,0,0,1,8.79-4q73.86,3.48,147.73,6.69c5.49.24,11,.13,16.46.76a7.34,7.34,0,0,1,5.06,3.46c22.5,49.53,44.79,99.15,67.28,148.69,1.5,3.3.21,5.24-1.42,7.58q-46.57,66.85-93.1,133.74c-.94,1.35-1.72,2.8-2.58,4.21h-8a34.64,34.64,0,0,0-4.37-.82q-78.24-5-156.49-9.89c-4.23-.26-6.27-1.52-7.94-5.51Q72.28,448.86,39,370.62c-.82-1.93-2-3.71-3-5.56Zm102.7,19.48L246,465.33c6.11-46.21,12.1-91.47,18.18-137.49Zm224.44,18.5-74.31-75.21c-6.58,48.64-13,96-19.57,144.63ZM224.28,486.19l-109-77.67c.91,35.69,1.78,70.18,2.67,105.23Zm-95.94-138.3,121.35-47.5L149.37,257.31C142.37,287.46,135.49,317.08,128.34,347.89ZM47.67,375c16.66,39.15,32.89,77.32,49.13,115.48l1-.32c-.68-34.93-1.36-69.87-2-105Zm51-7.58,23.21-98.25-.82-.36L50.79,357.32ZM268.14,495l16,31.16,62.1-87.71-1-.79Zm22.91-242.71-99.06-4-.15,1.15,81.33,35.48ZM160.66,526.53l.19.78L265.92,534c-5.12-9.83-9.73-18.42-14.06-27.13-1.46-2.91-3-3.55-6.22-2.68-25.5,6.82-51.06,13.41-76.6,20.08C166.24,525,163.46,525.76,160.66,526.53ZM349.92,351.91l-39.38-84.25c-5.16,10.59-10,20.4-14.65,30.29a3.67,3.67,0,0,0,.71,3.31C315.36,319.18,334.21,337,349.92,351.91Z" transform="translate(-36 -238.35)"/><path class="cls-1" d="M934,411.91c-6.37,16.3-17.48,22.45-32.82,18-10.66-3.11-15.55-11.07-17.83-21.72l8.5-2.89c.82,2.23,1.46,4.22,2.27,6.14,3.71,8.88,12.92,12.69,21.85,9.05a11.82,11.82,0,0,0,7.77-10.66c.44-5.28-1.61-9.61-6.39-12-6.39-3.18-13-5.83-19.51-8.83-5.89-2.73-10-7-11.36-13.59A20,20,0,0,1,895,354.62c14.76-9.58,33.84-1.79,37.1,15.72L923.46,373c-.57-1.37-1.12-2.69-1.69-4-3.27-7.5-10.17-10.55-18-8.06-4.19,1.33-7,3.94-7.51,8.36s1.07,8.33,5.15,10.5a116.94,116.94,0,0,0,14.9,6.92c8.63,3.11,15,8.21,17.74,17.22Z" transform="translate(-36 -238.35)"/><path class="cls-1" d="M751.37,431.72c-5.67-10.06-11.4-19.58-16.43-29.46-2.3-4.53-5.07-6.45-10.05-5.75a59,59,0,0,1-7.81.06v33h-9.65V351.65c11.51.5,23.14.27,34.55,1.75,8.32,1.08,13.15,7.31,14.36,15.77,1.37,9.57-1.92,17.26-9.72,23-1.59,1.16-3.41,2-5.48,3.2,6.2,10.24,12.34,20.4,18.76,31Zm-34.1-70.65v26.82c6.37-.36,12.55-.14,18.5-1.19,7.21-1.26,11.07-7.67,10.3-15.36-.65-6.46-5.22-10.11-13-10.26C727.92,361,722.78,361.07,717.27,361.07Z" transform="translate(-36 -238.35)"/><path class="cls-1" d="M790.38,390.09c1.85-7.85,2.92-16,5.74-23.48,3.76-10,11.55-15.64,22.65-15.73s18.94,5.44,23,15.28a62.86,62.86,0,0,1-.28,50.35c-4,9.32-11.48,14.35-21.94,14.49s-17.75-4.74-22.64-13.62C793.23,410.66,791.31,400.89,790.38,390.09Zm47,1.23c-1.88-7.76-3.21-15.4-5.64-22.66-1.89-5.63-6.73-8.51-12.84-8.49-5.89,0-10.39,2.86-12.61,8.17-6.29,15.06-6.33,30.31.07,45.34,2.27,5.33,6.87,8.06,12.72,8s10.65-2.78,12.53-8.2C834.11,406.41,835.49,399,837.42,391.32Z" transform="translate(-36 -238.35)"/><path class="cls-1" d="M629.08,393.16v27.55h37.76v8.84H619.19V352.46H667v8.45H629.24v23.18h31v9.07Z" transform="translate(-36 -238.35)"/><path class="cls-1" d="M481.21,350.26c2.48,1.94,4.67,3.66,7.46,5.83l-25.74,32.67,30.21,36.54-7.57,6.37-23.5-28.57c-2-2.44-3.89-5-6-7.29-1.09-1.18-2.66-1.92-5.09-3.61v37.27H441.2v-77h9.57v34c2.7-1.91,4.61-2.72,5.73-4.14,7.26-9.29,14.34-18.72,21.49-28.09C479,353,480,351.71,481.21,350.26Z" transform="translate(-36 -238.35)"/><path class="cls-1" d="M541.11,420.94h40.61v8.49H531.67v-77h9.44Z" transform="translate(-36 -238.35)"/></svg>