<svg id="ecOTgXasdBA1" xmlns="http://www.w3.org/2000/svg" xmlns:xlink="http://www.w3.org/1999/xlink" viewBox="0 0 1920 1080" shape-rendering="geometricPrecision" text-rendering="geometricPrecision">
	<style>
		<![CDATA[ #ecOTgXasdBA41_to {animation: ecOTgXasdBA41_to__to 3000ms linear infinite normal forwards}@keyframes ecOTgXasdBA41_to__to { 0% {transform: translate(1077.916803px,992.062065px)} 0.333333% {transform: translate(1046.901493px,992.062065px)} 33.333333% {transform: translate(1460.412651px,992.062065px)} 40% {transform: translate(1616.929231px,929.170656px)} 100% {transform: translate(1616.929231px,179.053721px)}} #ecOTgXasdBA41_tr {animation: ecOTgXasdBA41_tr__tr 3000ms linear infinite normal forwards}@keyframes ecOTgXasdBA41_tr__tr { 0% {transform: rotate(0deg)} 33.333333% {transform: rotate(0deg)} 40% {transform: rotate(-90deg)} 100% {transform: rotate(-90deg)}} #ecOTgXasdBA42_to {animation: ecOTgXasdBA42_to__to 3000ms linear infinite normal forwards}@keyframes ecOTgXasdBA42_to__to { 0% {transform: translate(956.359929px,795.017635px)} 63.333333% {transform: translate(956.012132px,955.109332px)} 100% {transform: translate(956.012132px,955.109332px)}} #ecOTgXasdBA43_to {animation: ecOTgXasdBA43_to__to 3000ms linear infinite normal forwards}@keyframes ecOTgXasdBA43_to__to { 0% {transform: translate(575.254505px,630.510019px)} 100% {transform: translate(575.254505px,863.696562px)}} #ecOTgXasdBA44_to {animation: ecOTgXasdBA44_to__to 3000ms linear infinite normal forwards}@keyframes ecOTgXasdBA44_to__to { 0% {transform: translate(1348.324538px,630.509958px)} 100% {transform: translate(1348.324538px,863.696536px)}} #ecOTgXasdBA45_to {animation: ecOTgXasdBA45_to__to 3000ms linear infinite normal forwards}@keyframes ecOTgXasdBA45_to__to { 0% {transform: translate(957.919185px,430.497909px)} 100% {transform: translate(956.012132px,955.109332px)}} #ecOTgXasdBA46_to {animation: ecOTgXasdBA46_to__to 3000ms linear infinite normal forwards}@keyframes ecOTgXasdBA46_to__to { 0% {transform: translate(957.78184px,619.143008px)} 40% {transform: translate(957.78184px,619.143008px)} 100% {transform: translate(1322.105433px,619.143003px)}} #ecOTgXasdBA46_ts {animation: ecOTgXasdBA46_ts__ts 3000ms linear infinite normal forwards}@keyframes ecOTgXasdBA46_ts__ts { 0% {transform: scale(-0.002351,0.99721)} 30% {transform: scale(-0.002351,0.99721)} 40% {transform: scale(1.887502,0.99721)} 100% {transform: scale(1.887502,0.99721)}} #ecOTgXasdBA47_to {animation: ecOTgXasdBA47_to__to 3000ms linear infinite normal forwards}@keyframes ecOTgXasdBA47_to__to { 0% {transform: translate(1184.725774px,275.34109px)} 50% {transform: translate(1184.725774px,275.34109px)} 56.666667% {transform: translate(1184.725774px,287.604094px)} 100% {transform: translate(1184.725774px,438.428349px)}} #ecOTgXasdBA47_ts {animation: ecOTgXasdBA47_ts__ts 3000ms linear infinite normal forwards}@keyframes ecOTgXasdBA47_ts__ts { 0% {transform: rotate(90deg) scale(-0.018389,1)} 50% {transform: rotate(90deg) scale(-0.018389,1)} 56.666667% {transform: rotate(90deg) scale(1.591202,1)} 100% {transform: rotate(90deg) scale(1.591202,1)}} #ecOTgXasdBA48_to {animation: ecOTgXasdBA48_to__to 3000ms linear infinite normal forwards}@keyframes ecOTgXasdBA48_to__to { 0% {transform: translate(957.78184px,619.143008px)} 40% {transform: translate(957.78184px,619.143008px)} 100% {transform: translate(602.24673px,619.143008px)}} #ecOTgXasdBA48_ts {animation: ecOTgXasdBA48_ts__ts 3000ms linear infinite normal forwards}@keyframes ecOTgXasdBA48_ts__ts { 0% {transform: rotate(180deg) scale(-0.002351,0.99721)} 30% {transform: rotate(180deg) scale(-0.002351,0.99721)} 40% {transform: rotate(180deg) scale(1.887502,0.99721)} 100% {transform: rotate(180deg) scale(1.887502,0.99721)}} #ecOTgXasdBA49_to {animation: ecOTgXasdBA49_to__to 3000ms linear infinite normal forwards}@keyframes ecOTgXasdBA49_to__to { 0% {transform: translate(1013.735069px,275.057298px)} 76.666667% {transform: translate(1013.735069px,275.057298px)} 100% {transform: translate(1013.387161px,324.882135px)}} #ecOTgXasdBA49_ts {animation: ecOTgXasdBA49_ts__ts 3000ms linear infinite normal forwards}@keyframes ecOTgXasdBA49_ts__ts { 0% {transform: rotate(90deg) scale(-0.018389,1)} 26% {transform: rotate(90deg) scale(-0.018389,1)} 66.666667% {transform: rotate(90deg) scale(-0.018389,1)} 73.333333% {transform: rotate(90deg) scale(1.591202,1)} 100% {transform: rotate(90deg) scale(1.591202,1)}} #ecOTgXasdBA50_to {animation: ecOTgXasdBA50_to__to 3000ms linear infinite normal forwards}@keyframes ecOTgXasdBA50_to__to { 0% {transform: translate(662.723226px,277.406122px)} 100% {transform: translate(662.897213px,445.401273px)}} #ecOTgXasdBA51_to {animation: ecOTgXasdBA51_to__to 3000ms linear infinite normal forwards}@keyframes ecOTgXasdBA51_to__to { 0% {transform: translate(960.018179px,206.0192px)} 46.666667% {transform: translate(960.018179px,206.0192px)} 100% {transform: translate(959.478328px,320.381037px)}} #ecOTgXasdBA52_to {animation: ecOTgXasdBA52_to__to 3000ms linear infinite normal forwards}@keyframes ecOTgXasdBA52_to__to { 0% {transform: translate(1487.28734px,176.795986px)} 23.333333% {transform: translate(1487.287253px,268.674155px)} 26.666667% {transform: translate(1475.920225px,275.057298px)} 100% {transform: translate(674.090174px,275.057647px)}} #ecOTgXasdBA52_tr {animation: ecOTgXasdBA52_tr__tr 3000ms linear infinite normal forwards}@keyframes ecOTgXasdBA52_tr__tr { 0% {transform: rotate(90deg)} 23.333333% {transform: rotate(90deg)} 26.666667% {transform: rotate(180deg)} 100% {transform: rotate(180deg)}} #ecOTgXasdBA53_to {animation: ecOTgXasdBA53_to__to 3000ms linear infinite normal forwards}@keyframes ecOTgXasdBA53_to__to { 0% {offset-distance: 0%} 100% {offset-distance: 100%}} ]]>
	</style>
	<defs>
		<linearGradient id="ecOTgXasdBA41-fill" x1="0" y1="0.5" x2="1" y2="0.5" spreadMethod="pad" gradientUnits="objectBoundingBox" gradientTransform="translate(0 0)">
			<stop id="ecOTgXasdBA41-fill-0" offset="11%" stop-color="rgba(255,255,255,0)" />
			<stop id="ecOTgXasdBA41-fill-1" offset="57%" stop-color="rgba(255,255,255,0.98)" />
			<stop id="ecOTgXasdBA41-fill-2" offset="100%" stop-color="#fff" />
		</linearGradient>
		<linearGradient id="ecOTgXasdBA42-fill" x1="0" y1="0.5" x2="1" y2="0.5" spreadMethod="pad" gradientUnits="objectBoundingBox" gradientTransform="translate(0 0)">
			<stop id="ecOTgXasdBA42-fill-0" offset="11%" stop-color="rgba(255,255,255,0)" />
			<stop id="ecOTgXasdBA42-fill-1" offset="57%" stop-color="rgba(255,255,255,0.98)" />
			<stop id="ecOTgXasdBA42-fill-2" offset="100%" stop-color="#fff" />
		</linearGradient>
		<linearGradient id="ecOTgXasdBA43-fill" x1="0" y1="0.5" x2="1" y2="0.5" spreadMethod="pad" gradientUnits="objectBoundingBox" gradientTransform="translate(0 0)">
			<stop id="ecOTgXasdBA43-fill-0" offset="11%" stop-color="rgba(255,255,255,0)" />
			<stop id="ecOTgXasdBA43-fill-1" offset="57%" stop-color="rgba(255,255,255,0.98)" />
			<stop id="ecOTgXasdBA43-fill-2" offset="100%" stop-color="#fff" />
		</linearGradient>
		<linearGradient id="ecOTgXasdBA44-fill" x1="0" y1="0.5" x2="1" y2="0.5" spreadMethod="pad" gradientUnits="objectBoundingBox" gradientTransform="translate(0 0)">
			<stop id="ecOTgXasdBA44-fill-0" offset="11%" stop-color="rgba(255,255,255,0)" />
			<stop id="ecOTgXasdBA44-fill-1" offset="57%" stop-color="rgba(255,255,255,0.98)" />
			<stop id="ecOTgXasdBA44-fill-2" offset="100%" stop-color="#fff" />
		</linearGradient>
		<linearGradient id="ecOTgXasdBA45-fill" x1="0" y1="0.5" x2="1" y2="0.5" spreadMethod="pad" gradientUnits="objectBoundingBox" gradientTransform="translate(0 0)">
			<stop id="ecOTgXasdBA45-fill-0" offset="11%" stop-color="rgba(255,255,255,0)" />
			<stop id="ecOTgXasdBA45-fill-1" offset="57%" stop-color="rgba(255,255,255,0.98)" />
			<stop id="ecOTgXasdBA45-fill-2" offset="100%" stop-color="#fff" />
		</linearGradient>
		<linearGradient id="ecOTgXasdBA46-fill" x1="0" y1="0.5" x2="1" y2="0.5" spreadMethod="pad" gradientUnits="objectBoundingBox" gradientTransform="translate(0 0)">
			<stop id="ecOTgXasdBA46-fill-0" offset="11%" stop-color="rgba(255,255,255,0)" />
			<stop id="ecOTgXasdBA46-fill-1" offset="57%" stop-color="rgba(255,255,255,0.98)" />
			<stop id="ecOTgXasdBA46-fill-2" offset="100%" stop-color="#fff" />
		</linearGradient>
		<linearGradient id="ecOTgXasdBA47-fill" x1="0" y1="0.5" x2="1" y2="0.5" spreadMethod="pad" gradientUnits="objectBoundingBox" gradientTransform="translate(0 0)">
			<stop id="ecOTgXasdBA47-fill-0" offset="11%" stop-color="rgba(255,255,255,0)" />
			<stop id="ecOTgXasdBA47-fill-1" offset="57%" stop-color="rgba(255,255,255,0.98)" />
			<stop id="ecOTgXasdBA47-fill-2" offset="100%" stop-color="#fff" />
		</linearGradient>
		<linearGradient id="ecOTgXasdBA48-fill" x1="0" y1="0.5" x2="1" y2="0.5" spreadMethod="pad" gradientUnits="objectBoundingBox" gradientTransform="translate(0 0)">
			<stop id="ecOTgXasdBA48-fill-0" offset="11%" stop-color="rgba(255,255,255,0)" />
			<stop id="ecOTgXasdBA48-fill-1" offset="57%" stop-color="rgba(255,255,255,0.98)" />
			<stop id="ecOTgXasdBA48-fill-2" offset="100%" stop-color="#fff" />
		</linearGradient>
		<linearGradient id="ecOTgXasdBA49-fill" x1="0" y1="0.5" x2="1" y2="0.5" spreadMethod="pad" gradientUnits="objectBoundingBox" gradientTransform="translate(0 0)">
			<stop id="ecOTgXasdBA49-fill-0" offset="11%" stop-color="rgba(255,255,255,0)" />
			<stop id="ecOTgXasdBA49-fill-1" offset="57%" stop-color="rgba(255,255,255,0.98)" />
			<stop id="ecOTgXasdBA49-fill-2" offset="100%" stop-color="#fff" />
		</linearGradient>
		<linearGradient id="ecOTgXasdBA50-fill" x1="0" y1="0.5" x2="1" y2="0.5" spreadMethod="pad" gradientUnits="objectBoundingBox" gradientTransform="translate(0 0)">
			<stop id="ecOTgXasdBA50-fill-0" offset="11%" stop-color="rgba(255,255,255,0)" />
			<stop id="ecOTgXasdBA50-fill-1" offset="57%" stop-color="rgba(255,255,255,0.98)" />
			<stop id="ecOTgXasdBA50-fill-2" offset="100%" stop-color="#fff" />
		</linearGradient>
		<linearGradient id="ecOTgXasdBA51-fill" x1="0" y1="0.5" x2="1" y2="0.5" spreadMethod="pad" gradientUnits="objectBoundingBox" gradientTransform="translate(0 0)">
			<stop id="ecOTgXasdBA51-fill-0" offset="11%" stop-color="rgba(255,255,255,0)" />
			<stop id="ecOTgXasdBA51-fill-1" offset="57%" stop-color="rgba(255,255,255,0.98)" />
			<stop id="ecOTgXasdBA51-fill-2" offset="100%" stop-color="#fff" />
		</linearGradient>
		<linearGradient id="ecOTgXasdBA52-fill" x1="0" y1="0.5" x2="1" y2="0.5" spreadMethod="pad" gradientUnits="objectBoundingBox" gradientTransform="translate(0 0)">
			<stop id="ecOTgXasdBA52-fill-0" offset="11%" stop-color="rgba(255,255,255,0)" />
			<stop id="ecOTgXasdBA52-fill-1" offset="57%" stop-color="rgba(255,255,255,0.98)" />
			<stop id="ecOTgXasdBA52-fill-2" offset="100%" stop-color="#fff" />
		</linearGradient>
		<linearGradient id="ecOTgXasdBA53-fill" x1="0" y1="0.5" x2="1" y2="0.5" spreadMethod="pad" gradientUnits="objectBoundingBox" gradientTransform="translate(0 0)">
			<stop id="ecOTgXasdBA53-fill-0" offset="11%" stop-color="rgba(255,255,255,0)" />
			<stop id="ecOTgXasdBA53-fill-1" offset="57%" stop-color="rgba(255,255,255,0.98)" />
			<stop id="ecOTgXasdBA53-fill-2" offset="100%" stop-color="#fff" />
		</linearGradient>
	</defs>
	<g>
		<g transform="translate(-142.273312-.02189)">
			<path d="M1759.202543,896.324032v-682.730441" transform="matrix(1 0 0 1.054407 0-30.193642)" fill="none" stroke="#eac57e" stroke-linecap="round" />
			<path d="M1760.020993,214.271229h-1.64l.850708-1.355271.789292,1.355271" transform="matrix(2.325673 0 0 3.620218-2332.123708-573.744534)" fill="none" stroke="#eac57e" stroke-linecap="round" stroke-linejoin="round" />
		</g>
		<g transform="matrix(-1 0 0-1 2719.202622 1145.441989)">
			<path d="M1759.202543,896.324032v-682.730441" transform="matrix(1.001085 0 0 0.130395-1.910803 798.020611)" fill="none" stroke="#eac57e" stroke-linecap="round" />
			<path d="M1760.020993,214.271229h-1.64l.850708-1.355271.789292,1.355271" transform="matrix(2.325673 0 0 3.620218-2332.123708 55.070192)" fill="none" stroke="#eac57e" stroke-linecap="round" stroke-linejoin="round" />
		</g>
		<g transform="matrix(-1 0 0-1.806934 2943.928317 1928.21575)">
			<path d="M1759.202543,896.324032v-682.730441" transform="matrix(1.001085 0 0 0.130395-1.910803 798.020611)" fill="none" stroke="#eac57e" stroke-linecap="round" />
			<path d="M1760.020993,214.271229h-1.64l.850708-1.355271.789292,1.355271" transform="matrix(2.325673 0 0 2.28061-2332.123708 339.656456)" fill="none" stroke="#eac57e" stroke-linecap="round" stroke-linejoin="round" />
		</g>
		<g transform="matrix(-1 0 0-.506578 2772.761591 738.52388)">
			<path d="M1759.202543,896.324032v-682.730441" transform="matrix(1.001085 0 0 0.130395-1.910803 798.020611)" fill="none" stroke="#eac57e" stroke-linecap="round" />
			<path d="M1760.020993,214.271229h-1.64l.850708-1.355271.789292,1.355271" transform="matrix(2.325673 0 0 6.809099-2332.125775-622.280527)" fill="none" stroke="#eac57e" stroke-linecap="round" stroke-linejoin="round" />
		</g>
		<g transform="matrix(-1 0 0-.414449 2334.457082 1025.195702)">
			<path d="M1759.202543,896.324032v-682.730441" transform="matrix(1.001085 0 0 0.130395-1.910803 798.020611)" fill="none" stroke="#eac57e" stroke-linecap="round" />
			<path d="M1760.020993,214.271229h-1.64l.850708-1.355271.789292,1.355271" transform="matrix(2.325673 0 0 8.422476-2332.123674-964.977665)" fill="none" stroke="#eac57e" stroke-linecap="round" stroke-linejoin="round" />
		</g>
		<g transform="matrix(-1 0 0-.423069 2334.457082 1197.589784)">
			<path d="M1759.202543,896.324032v-682.730441" transform="matrix(1.001085 0 0 0.130395-1.910803 798.020611)" fill="none" stroke="#eac57e" stroke-linecap="round" />
		</g>
		<g transform="matrix(-1 0 0-.59716 3246.487815 741.644324)">
			<path d="M1759.202543,896.324032v-682.730441" transform="matrix(1.001085 0 0 0.130395-1.910803 798.020611)" fill="none" stroke="#eac57e" stroke-linecap="round" />
		</g>
		<g transform="matrix(-1 0 0-.414449 3107.527114 1025.19573)">
			<path d="M1759.202543,896.324032v-682.730441" transform="matrix(1.001085 0 0 0.130395-1.910803 798.020611)" fill="none" stroke="#eac57e" stroke-linecap="round" />
			<path d="M1760.020993,214.271229h-1.64l.850708-1.355271.789292,1.355271" transform="matrix(2.325673 0 0 8.422479-2332.123708-964.978236)" fill="none" stroke="#eac57e" stroke-linecap="round" stroke-linejoin="round" />
		</g>
		<g transform="matrix(-1 0 0-.414449 3107.527116 1189.703373)">
			<path d="M1759.202543,896.324032v-682.730441" transform="matrix(1.001085 0 0 0.130395-1.910803 798.020611)" fill="none" stroke="#eac57e" stroke-linecap="round" />
		</g>
		<g transform="matrix(-1 0 0-1.511231 2421.925802 1684.836074)">
			<path d="M1759.202543,896.324032v-682.730441" transform="matrix(1.001085 0 0 0.130395-1.910803 798.020611)" fill="none" stroke="#eac57e" stroke-linecap="round" />
			<path d="M1760.020993,214.271229h-1.64l.850708-1.355271.789292,1.355271" transform="matrix(2.325673 0 0 2.817899-2332.123708 225.562278)" fill="none" stroke="#eac57e" stroke-linecap="round" stroke-linejoin="round" />
		</g>
		<g transform="matrix(-1 0 0-.873629 2719.202515 1245.285982)">
			<path d="M1759.202543,896.324032v-682.730441" transform="matrix(1.001085 0 0 0.398029-.01989 558.133891)" fill="none" stroke="#eac57e" stroke-linecap="round" />
			<path d="M1760.020993,214.271229h-1.64l.850708-1.355271.789292,1.355271" transform="matrix(2.325673 0 0 3.620218-2330.234863-125.421088)" fill="none" stroke="#eac57e" stroke-linecap="round" stroke-linejoin="round" />
		</g>
		<g transform="matrix(-1 0 0-.474988 2717.277475 1245.090368)">
			<path d="M1759.202543,896.324032v-682.730441" transform="matrix(1.001085 0 0 0.398029-.01989 558.133891)" fill="none" stroke="#eac57e" stroke-linecap="round" />
			<path d="M1760.020993,214.271229h-1.64l.850708-1.355271.789292,1.355271" transform="matrix(2.325673 0 0 5.895903-2330.234862-609.950741)" fill="none" stroke="#eac57e" stroke-linecap="round" stroke-linejoin="round" />
		</g>
		<path d="M933.125442,203.670589h-579.797542" transform="matrix(.746436 0 0 1 236.60702 0)" fill="none" stroke="#eac57e" />
		<path d="M933.125442,203.670589h-579.797542" transform="matrix(1.329455 0 0 1.492722 219.864287-28.966045)" fill="none" stroke="#eac57e" />
		<path d="M933.125442,203.670589h-579.797542" transform="matrix(1.240641 0 0 1.492722 163.89363 315.119439)" fill="none" stroke="#eac57e" />
		<path d="M933.125442,203.670589h-579.797542" transform="matrix(1.240641 0 0 1.492722 163.776031 571.03994)" fill="none" stroke="#eac57e" />
		<path d="M933.125442,203.670589h-579.797542" transform="matrix(.656376 0 0 1.492722 830.493193 688.038495)" fill="none" stroke="#eac57e" />
	</g>
	<g id="ecOTgXasdBA41_to" transform="translate(1077.916803,992.062065)">
		<g id="ecOTgXasdBA41_tr" transform="rotate(0)">
			<rect width="15.413509" height="3.466196" rx="1.73" ry="1.73" transform="scale(2.012216,1) translate(-7.706755,-1.733098)" fill="url(#ecOTgXasdBA41-fill)" stroke-width="0" />
		</g>
	</g>
	<g id="ecOTgXasdBA42_to" transform="translate(956.359929,795.017635)">
		<rect width="15.413509" height="3.466196" rx="1.73" ry="1.73" transform="rotate(90) scale(2.012216,1) translate(-7.706755,-1.733098)" fill="url(#ecOTgXasdBA42-fill)" stroke-width="0" />
	</g>
	<g id="ecOTgXasdBA43_to" transform="translate(575.254505,630.510019)">
		<rect width="15.413509" height="3.466196" rx="1.73" ry="1.73" transform="rotate(90) scale(2.012216,1) translate(-7.706755,-1.733098)" fill="url(#ecOTgXasdBA43-fill)" stroke-width="0" />
	</g>
	<g id="ecOTgXasdBA44_to" transform="translate(1348.324538,630.509958)">
		<rect width="15.413509" height="3.466196" rx="1.73" ry="1.73" transform="rotate(90) scale(2.012216,1) translate(-7.706755,-1.733098)" fill="url(#ecOTgXasdBA44-fill)" stroke-width="0" />
	</g>
	<g id="ecOTgXasdBA45_to" transform="translate(957.919185,430.497909)">
		<rect width="15.413509" height="3.466196" rx="1.73" ry="1.73" transform="rotate(90) scale(2.012216,1) translate(-7.706755,-1.733098)" fill="url(#ecOTgXasdBA45-fill)" stroke-width="0" />
	</g>
	<g id="ecOTgXasdBA46_to" transform="translate(957.78184,619.143008)">
		<g id="ecOTgXasdBA46_ts" transform="scale(-0.002351,0.99721)">
			<rect width="15.413509" height="3.466196" rx="1.73" ry="1.73" transform="translate(0.062315,-1.733093)" fill="url(#ecOTgXasdBA46-fill)" stroke-width="0" />
		</g>
	</g>
	<g id="ecOTgXasdBA47_to" transform="translate(1184.725774,275.34109)">
		<g id="ecOTgXasdBA47_ts" transform="rotate(90) scale(-0.018389,1)">
			<rect width="15.413509" height="3.466196" rx="1.73" ry="1.73" transform="translate(0,-1.733098)" fill="url(#ecOTgXasdBA47-fill)" stroke-width="0" />
		</g>
	</g>
	<g id="ecOTgXasdBA48_to" transform="translate(957.78184,619.143008)">
		<g id="ecOTgXasdBA48_ts" transform="rotate(180) scale(-0.002351,0.99721)">
			<rect width="15.413509" height="3.466196" rx="1.73" ry="1.73" transform="translate(0.062315,-1.733093)" fill="url(#ecOTgXasdBA48-fill)" stroke-width="0" />
		</g>
	</g>
	<g id="ecOTgXasdBA49_to" transform="translate(1013.735069,275.057298)">
		<g id="ecOTgXasdBA49_ts" transform="rotate(90) scale(-0.018389,1)">
			<rect width="15.413509" height="3.466196" rx="1.73" ry="1.73" transform="translate(0,-1.733098)" fill="url(#ecOTgXasdBA49-fill)" stroke-width="0" />
		</g>
	</g>
	<g id="ecOTgXasdBA50_to" transform="translate(662.723226,277.406122)">
		<rect width="15.413509" height="3.466196" rx="1.73" ry="1.73" transform="rotate(90) scale(1.591202,1) translate(0,-1.733098)" fill="url(#ecOTgXasdBA50-fill)" stroke-width="0" />
	</g>
	<g id="ecOTgXasdBA51_to" transform="translate(960.018179,206.0192)">
		<rect width="15.413509" height="3.466196" rx="1.73" ry="1.73" transform="rotate(90) scale(1.591202,1) translate(0,-1.733098)" fill="url(#ecOTgXasdBA51-fill)" stroke-width="0" />
	</g>
	<g id="ecOTgXasdBA52_to" transform="translate(1487.28734,176.795986)">
		<g id="ecOTgXasdBA52_tr" transform="rotate(90)">
			<rect width="15.413509" height="3.466196" rx="1.73" ry="1.73" transform="scale(2.012216,1) translate(-7.706755,-1.733098)" fill="url(#ecOTgXasdBA52-fill)" stroke-width="0" />
		</g>
	</g>
	<g id="ecOTgXasdBA53_to" style="offset-path:path('M512.759849,203.670589C705.226072,203.670589,925.41746,203.670589,943.065391,203.670589');offset-rotate:0deg">
		<rect width="15.413509" height="3.466196" rx="1.73" ry="1.73" transform="scale(2.012216,1) translate(-7.706755,-1.733098)" fill="url(#ecOTgXasdBA53-fill)" stroke-width="0" />
	</g>
	<g transform="translate(.786978-.604288)">
		<g transform="translate(-1.888903 15.59859)">
			<rect width="191.169823" height="71.27108" rx="12" ry="12" transform="matrix(1.091156 0 0 1.472138 855.701951 924.003041)" fill="#eac57e" stroke-width="0" />
			<text dx="0" dy="0" font-family="&quot;__Cumberland Std_5&quot;" font-size="24" font-weight="400" transform="translate(916.805534 973.204355)" stroke-width="0">
				<tspan y="0" font-weight="400" stroke-width="0">
					<![CDATA[ Profit ]]>
				</tspan>
				<tspan x="0" y="24" font-weight="400" stroke-width="0">
					<![CDATA[  Pool ]]>
				</tspan>
				<tspan x="0" y="48" font-weight="400" stroke-width="0">
					<![CDATA[   ]]>
				</tspan>
			</text>
		</g>
		<g transform="translate(0 0.000001)">
			<div>
			</div>
			<rect width="191.169823" height="71.27108" rx="12" ry="12" transform="matrix(1.167844 0 0 1.754151 848.371735 320.985324)" fill="#eac57e" stroke-width="0" />
			<text dx="0" dy="0" font-family="&quot;__Cumberland Std_5&quot;" font-size="24" font-weight="400" transform="translate(888.007431 380.458257)" stroke-width="0">
				<tspan y="0" font-weight="400" stroke-width="0">
					<![CDATA[ Investment ]]>
				</tspan>
				<tspan x="0" y="24" font-weight="400" stroke-width="0">
					<![CDATA[    Pool ]]>
				</tspan>
				<tspan x="0" y="48" font-weight="400" stroke-width="0">
					<![CDATA[   ]]>
				</tspan>
			</text>
		</g>
		<g transform="matrix(1 0 0 0.975671-100.251131 23.756295)">
			<rect width="258.357667" height="100.967364" rx="12" ry="12" transform="matrix(1 0 0 1.249947 1543.225395 913.361547)" fill="#3c3c3c" stroke="#eac57e" />
			<text dx="0" dy="0" font-family="&quot;__Cumberland Std_5&quot;" font-size="24" font-weight="400" transform="translate(1600.412461 985.571552)" fill="#eac57e" stroke-width="0">
				<tspan y="0" font-weight="400" stroke-width="0">
					<![CDATA[ Governance ]]>
				</tspan>
			</text>
		</g>
		<g transform="translate(-1.057928-34.341187)">
			<rect width="258.357667" height="100.967364" rx="12" ry="12" transform="matrix(1.128266 0 0 1.258962 814.251915 717.752401)" fill="#3c3c3c" stroke="#eac57e" />
			<text dx="0" dy="0" font-family="&quot;__Cumberland Std_5&quot;" font-size="24" font-weight="400" transform="translate(852.025459 754.101258)" fill="#eac57e" stroke-width="0">
				<tspan y="0" font-weight="400" stroke-width="0">
					<![CDATA[   Decentralized ]]>
				</tspan>
				<tspan x="0" y="24" font-weight="400" stroke-width="0">
					<![CDATA[ Venture Capital ]]>
				</tspan>
				<tspan x="0" y="48" font-weight="400" stroke-width="0">
					<![CDATA[  for Emerging ]]>
				</tspan>
				<tspan x="0" y="72" font-weight="400" stroke-width="0">
					<![CDATA[    Projects ]]>
				</tspan>
				<tspan x="0" y="96" font-weight="400" stroke-width="0">
					<![CDATA[   ]]>
				</tspan>
			</text>
		</g>
		<g transform="translate(-1.057928-34.341187)">
			<rect width="258.357667" height="100.967364" rx="12" ry="12" transform="matrix(1.128675 0 0 1.258962 1169.868738 717.752401)" fill="#3c3c3c" stroke="#eac57e" />
			<text dx="0" dy="0" font-family="&quot;__Cumberland Std_5&quot;" font-size="24" font-weight="400" transform="translate(1200.503634 766.101262)" fill="#eac57e" stroke-width="0">
				<tspan y="0" font-weight="400" stroke-width="0">
					<![CDATA[      Advanced ]]>
				</tspan>
				<tspan x="0" y="24" font-weight="400" stroke-width="0">
					<![CDATA[ Liquidity Locker ]]>
				</tspan>
				<tspan x="0" y="48" font-weight="400" stroke-width="0">
					<![CDATA[     Solutions ]]>
				</tspan>
				<tspan x="0" y="72" font-weight="400" stroke-width="0">
					<![CDATA[   ]]>
				</tspan>
			</text>
		</g>
		<g transform="translate(-100.251126 0)">
			<rect width="258.357667" height="100.967364" rx="12" ry="12" transform="translate(1543.225395 94.031681)" fill="#3c3c3c" stroke="#eac57e" />
			<text dx="0" dy="0" font-family="&quot;__Cumberland Std_5&quot;" font-size="24" font-weight="400" transform="translate(1600.402474 153.434027)" fill="#eac57e" stroke-width="0">
				<tspan y="0" font-weight="400" stroke-width="0">
					<![CDATA[ ØxLP Token ]]>
				</tspan>
			</text>
		</g>
		<g transform="translate(1.78932 10.724741)">
			<rect width="258.357667" height="100.967364" rx="12" ry="12" transform="translate(830.821167 43.547999)" fill="#3c3c3c" stroke="#eac57e" />
			<text dx="0" dy="0" font-family="&quot;__Cumberland Std_5&quot;" font-size="24" font-weight="400" transform="translate(880.806588 79.909162)" fill="#fff" stroke-width="0">
				<tspan y="0" font-weight="400" stroke-width="0">
					<![CDATA[ ØxLiquidity ]]>
				</tspan>
			</text>
			<text dx="0" dy="0" font-family="&quot;__Cumberland Std_5&quot;" font-size="24" font-weight="400" transform="translate(895.20153 122.665931)" fill="#eac57e" stroke-width="0">
				<tspan y="0" font-weight="400" stroke-width="0">
					<![CDATA[ Ecosystem ]]>
				</tspan>
			</text>
			<path d="M918.860266,94.031681h82.279557" transform="translate(.000001 0)" fill="none" stroke="#eac57e" stroke-width="3" stroke-linecap="round" />
		</g>
		<g transform="translate(147.015788 35.546167)">
			<rect width="258.357667" height="100.967364" rx="12" ry="12" transform="translate(94.970233 94.031681)" fill="#3c3c3c" stroke="#eac57e" />
			<text dx="0" dy="0" font-family="&quot;__Cumberland Std_5&quot;" font-size="24" font-weight="400" transform="translate(108.972317 141.40026)" fill="#eac57e" stroke-width="0">
				<tspan y="0" font-weight="400" stroke-width="0">
					<![CDATA[       X Token ]]>
				</tspan>
				<tspan x="0" y="24" font-weight="400" stroke-width="0">
					<![CDATA[ (launch Q1 2024) ]]>
				</tspan>
			</text>
		</g>
		<g transform="translate(0 0.000001)">
			<rect width="258.357667" height="100.967364" rx="12" ry="12" transform="translate(1116.841475 439.032636)" stroke="#eac57e" />
			<text dx="0" dy="0" font-family="&quot;__Cumberland Std_5&quot;" font-size="24" font-weight="400" transform="translate(1166.818999 498.897349)" fill="#eac57e" stroke-width="0">
				<tspan y="0" font-weight="400" stroke-width="0">
					<![CDATA[ Development ]]>
				</tspan>
			</text>
		</g>
		<g transform="translate(0 0.000001)">
			<rect width="258.357667" height="100.967364" rx="12" ry="12" transform="translate(522.699798 439.032636)" stroke="#eac57e" />
			<text dx="0" dy="0" font-family="&quot;__Cumberland Std_5&quot;" font-size="24" font-weight="400" transform="translate(587.100044 498.311034)" fill="#eac57e" stroke-width="0">
				<tspan y="0" font-weight="400" stroke-width="0">
					<![CDATA[ Marketing ]]>
				</tspan>
			</text>
		</g>
		<g transform="translate(-1.057928-34.341187)">
			<rect width="258.357667" height="100.967364" rx="12" ry="12" transform="matrix(1.12478 0 0 1.258962 456.831325 717.752401)" fill="#3c3c3c" stroke="#eac57e" />
			<text dx="0" dy="0" font-family="&quot;__Cumberland Std_5&quot;" font-size="24" font-weight="400" transform="translate(479.76476 752.759654)" fill="#eac57e" stroke-width="0">
				<tspan y="0" font-weight="400" stroke-width="0">
					<![CDATA[    Decentralized ]]>
				</tspan>
				<tspan x="0" y="24" font-weight="400" stroke-width="0">
					<![CDATA[ Liquidity Listing ]]>
				</tspan>
				<tspan x="0" y="48" font-weight="400" stroke-width="0">
					<![CDATA[    and Auction ]]>
				</tspan>
				<tspan x="0" y="72" font-weight="400" stroke-width="0">
					<![CDATA[     Platform ]]>
				</tspan>
				<tspan x="0" y="96" font-weight="400" stroke-width="0">
					<![CDATA[   ]]>
				</tspan>
			</text>
		</g>
	</g>
	<g>
		<ellipse rx="26.874604" ry="26.874604" transform="translate(960.000046 203.670589)" fill="#3c3c3c" stroke="#eac57e" />
		<ellipse rx="26.874604" ry="26.874604" transform="translate(662.723226 275.057524)" fill="#3c3c3c" stroke="#eac57e" />
		<ellipse rx="26.874604" ry="26.874604" transform="translate(575.372103 619.143008)" fill="#3c3c3c" stroke="#eac57e" />
		<ellipse rx="26.874604" ry="26.874604" transform="translate(575.254506 875.06351)" fill="#3c3c3c" stroke="#eac57e" />
		<ellipse rx="26.874604" ry="26.874604" transform="translate(1348.324538 875.063509)" fill="#3c3c3c" stroke="#eac57e" />
		<ellipse rx="26.874604" ry="26.874604" transform="translate(1348.442159 619.143008)" fill="#3c3c3c" stroke="#eac57e" />
		<ellipse rx="26.874604" ry="26.874604" transform="translate(1487.287253 275.34109)" fill="#3c3c3c" stroke="#eac57e" />
	</g>
</svg>
