<svg id="Слой_1" data-name="Слой 1" xmlns="http://www.w3.org/2000/svg" viewBox="0 0 12 9.76"><defs><style>.cls-1{fill:#bdbdbd;}</style></defs><path class="cls-1" d="M12,2.27a5.17,5.17,0,0,1-1.41.39,2.49,2.49,0,0,0,1.08-1.37,4.86,4.86,0,0,1-1.56.6,2.47,2.47,0,0,0-4.2,2.25A7,7,0,0,1,.84,1.56,2.41,2.41,0,0,0,.5,2.8,2.46,2.46,0,0,0,1.6,4.85,2.44,2.44,0,0,1,.48,4.54v0A2.46,2.46,0,0,0,2.46,7,2.46,2.46,0,0,1,1.35,7a2.46,2.46,0,0,0,2.3,1.71,4.93,4.93,0,0,1-3.06,1,5.83,5.83,0,0,1-.59,0,7,7,0,0,0,3.77,1.11,7,7,0,0,0,7-7c0-.1,0-.21,0-.32A5.12,5.12,0,0,0,12,2.27Z" transform="translate(0 -1.11)"/></svg>